<mxfile host="app.diagrams.net" modified="2024-07-25T20:17:28.588Z" agent="Mozilla/5.0 (Windows NT 10.0; Win64; x64) AppleWebKit/537.36 (KHTML, like Gecko) Chrome/126.0.0.0 Safari/537.36" etag="5Xjg4DmYql7ilTgf8omB" version="24.6.5" type="device">
  <diagram name="Страница — 1" id="CNfjTaL9uazOC9O-k19D">
    <mxGraphModel dx="2100" dy="1130" grid="0" gridSize="4" guides="1" tooltips="1" connect="1" arrows="1" fold="1" page="1" pageScale="1" pageWidth="827" pageHeight="1169" math="0" shadow="0">
      <root>
        <mxCell id="0" />
        <mxCell id="1" parent="0" />
        <mxCell id="f3pBe8pRWgfERB6MtVSj-11" value="animals" style="swimlane;fontStyle=0;align=center;verticalAlign=top;childLayout=stackLayout;horizontal=1;startSize=37;horizontalStack=0;resizeParent=1;resizeParentMax=0;resizeLast=0;collapsible=1;marginBottom=0;fontSize=19;" parent="1" vertex="1">
          <mxGeometry x="265" y="51" width="290" height="99" as="geometry" />
        </mxCell>
        <mxCell id="f3pBe8pRWgfERB6MtVSj-12" value="id: INT&#xa;animal_class: VARCHAR(100)" style="text;strokeColor=none;fillColor=none;align=left;verticalAlign=top;spacingLeft=4;spacingRight=4;overflow=hidden;rotatable=0;points=[[0,0.5],[1,0.5]];portConstraint=eastwest;fontSize=16;fontStyle=0" parent="f3pBe8pRWgfERB6MtVSj-11" vertex="1">
          <mxGeometry y="37" width="290" height="62" as="geometry" />
        </mxCell>
        <mxCell id="f3pBe8pRWgfERB6MtVSj-15" value="pets" style="swimlane;fontStyle=0;align=center;verticalAlign=top;childLayout=stackLayout;horizontal=1;startSize=37;horizontalStack=0;resizeParent=1;resizeParentMax=0;resizeLast=0;collapsible=1;marginBottom=0;fontSize=19;" parent="1" vertex="1">
          <mxGeometry x="41" y="296" width="290" height="109" as="geometry">
            <mxRectangle x="41" y="369" width="71" height="37" as="alternateBounds" />
          </mxGeometry>
        </mxCell>
        <mxCell id="kFpFYELlEwabMlg4MgQJ-4" value="id: INT&#xa;pet_name VARCHAR(100)&#xa;animal_id: INT" style="text;strokeColor=none;fillColor=none;align=left;verticalAlign=top;spacingLeft=4;spacingRight=4;overflow=hidden;rotatable=0;points=[[0,0.5],[1,0.5]];portConstraint=eastwest;fontSize=16;fontStyle=0" vertex="1" parent="f3pBe8pRWgfERB6MtVSj-15">
          <mxGeometry y="37" width="290" height="72" as="geometry" />
        </mxCell>
        <mxCell id="f3pBe8pRWgfERB6MtVSj-19" value="pack_animals" style="swimlane;fontStyle=0;align=center;verticalAlign=top;childLayout=stackLayout;horizontal=1;startSize=37;horizontalStack=0;resizeParent=1;resizeParentMax=0;resizeLast=0;collapsible=1;marginBottom=0;fontSize=19;" parent="1" vertex="1">
          <mxGeometry x="487" y="296" width="290" height="109" as="geometry" />
        </mxCell>
        <mxCell id="kFpFYELlEwabMlg4MgQJ-5" value="id: INT&#xa;pack_animal_name VARCHAR(100)&#xa;animal_id: INT" style="text;strokeColor=none;fillColor=none;align=left;verticalAlign=top;spacingLeft=4;spacingRight=4;overflow=hidden;rotatable=0;points=[[0,0.5],[1,0.5]];portConstraint=eastwest;fontSize=16;fontStyle=0" vertex="1" parent="f3pBe8pRWgfERB6MtVSj-19">
          <mxGeometry y="37" width="290" height="72" as="geometry" />
        </mxCell>
        <mxCell id="f3pBe8pRWgfERB6MtVSj-23" value="" style="endArrow=block;endFill=1;html=1;rounded=0;edgeStyle=orthogonalEdgeStyle;entryX=0.306;entryY=0.993;entryDx=0;entryDy=0;entryPerimeter=0;exitX=0.5;exitY=0;exitDx=0;exitDy=0;" parent="1" source="f3pBe8pRWgfERB6MtVSj-15" edge="1">
          <mxGeometry x="-0.4659" width="160" relative="1" as="geometry">
            <mxPoint x="223" y="382" as="sourcePoint" />
            <mxPoint x="359.74" y="150.4749999999999" as="targetPoint" />
            <Array as="points">
              <mxPoint x="186" y="241" />
              <mxPoint x="360" y="241" />
            </Array>
            <mxPoint as="offset" />
          </mxGeometry>
        </mxCell>
        <mxCell id="f3pBe8pRWgfERB6MtVSj-25" value="" style="endArrow=block;endFill=1;html=1;rounded=0;edgeStyle=orthogonalEdgeStyle;exitX=0.5;exitY=0;exitDx=0;exitDy=0;entryX=0.656;entryY=0.983;entryDx=0;entryDy=0;entryPerimeter=0;" parent="1" source="f3pBe8pRWgfERB6MtVSj-19" edge="1">
          <mxGeometry x="-0.4659" width="160" relative="1" as="geometry">
            <mxPoint x="631" y="469" as="sourcePoint" />
            <mxPoint x="461.24" y="149.7249999999999" as="targetPoint" />
            <Array as="points">
              <mxPoint x="629" y="241" />
              <mxPoint x="461" y="241" />
            </Array>
            <mxPoint as="offset" />
          </mxGeometry>
        </mxCell>
        <mxCell id="f3pBe8pRWgfERB6MtVSj-28" value="hamsters" style="swimlane;fontStyle=0;align=center;verticalAlign=top;childLayout=stackLayout;horizontal=1;startSize=37;horizontalStack=0;resizeParent=1;resizeParentMax=0;resizeLast=0;collapsible=1;marginBottom=0;fontSize=19;" parent="1" vertex="1">
          <mxGeometry x="170" y="851" width="240" height="156" as="geometry" />
        </mxCell>
        <mxCell id="kFpFYELlEwabMlg4MgQJ-9" value="id: INT&#xa;humster_name VARCHAR(100)&#xa;birthday: date&#xa;commands: VARCHAR(255)&#xa;pet_id: INT" style="text;strokeColor=none;fillColor=none;align=left;verticalAlign=top;spacingLeft=4;spacingRight=4;overflow=hidden;rotatable=0;points=[[0,0.5],[1,0.5]];portConstraint=eastwest;fontSize=16;fontStyle=0" vertex="1" parent="f3pBe8pRWgfERB6MtVSj-28">
          <mxGeometry y="37" width="240" height="119" as="geometry" />
        </mxCell>
        <mxCell id="f3pBe8pRWgfERB6MtVSj-30" value="dogs" style="swimlane;fontStyle=0;align=center;verticalAlign=top;childLayout=stackLayout;horizontal=1;startSize=37;horizontalStack=0;resizeParent=1;resizeParentMax=0;resizeLast=0;collapsible=1;marginBottom=0;fontSize=19;" parent="1" vertex="1">
          <mxGeometry x="173" y="660" width="237" height="156" as="geometry" />
        </mxCell>
        <mxCell id="kFpFYELlEwabMlg4MgQJ-8" value="id: INT&#xa;dog_name VARCHAR(100)&#xa;birthday: date&#xa;commands: VARCHAR(255)&#xa;pet_id: INT" style="text;strokeColor=none;fillColor=none;align=left;verticalAlign=top;spacingLeft=4;spacingRight=4;overflow=hidden;rotatable=0;points=[[0,0.5],[1,0.5]];portConstraint=eastwest;fontSize=16;fontStyle=0" vertex="1" parent="f3pBe8pRWgfERB6MtVSj-30">
          <mxGeometry y="37" width="237" height="119" as="geometry" />
        </mxCell>
        <mxCell id="f3pBe8pRWgfERB6MtVSj-32" value="cats" style="swimlane;fontStyle=0;align=center;verticalAlign=top;childLayout=stackLayout;horizontal=1;startSize=37;horizontalStack=0;resizeParent=1;resizeParentMax=0;resizeLast=0;collapsible=1;marginBottom=0;fontSize=19;" parent="1" vertex="1">
          <mxGeometry x="170" y="483.5" width="239" height="156" as="geometry" />
        </mxCell>
        <mxCell id="kFpFYELlEwabMlg4MgQJ-7" value="id: INT&#xa;cat_name VARCHAR(100)&#xa;birthday: date&#xa;commands: VARCHAR(255)&#xa;pet_id: INT" style="text;strokeColor=none;fillColor=none;align=left;verticalAlign=top;spacingLeft=4;spacingRight=4;overflow=hidden;rotatable=0;points=[[0,0.5],[1,0.5]];portConstraint=eastwest;fontSize=16;fontStyle=0" vertex="1" parent="f3pBe8pRWgfERB6MtVSj-32">
          <mxGeometry y="37" width="239" height="119" as="geometry" />
        </mxCell>
        <mxCell id="f3pBe8pRWgfERB6MtVSj-36" value="" style="endArrow=block;endFill=1;html=1;rounded=0;edgeStyle=orthogonalEdgeStyle;entryX=0.208;entryY=1.021;entryDx=0;entryDy=0;entryPerimeter=0;exitX=-0.013;exitY=0.429;exitDx=0;exitDy=0;exitPerimeter=0;" parent="1" edge="1" target="kFpFYELlEwabMlg4MgQJ-4" source="kFpFYELlEwabMlg4MgQJ-8">
          <mxGeometry x="0.1395" y="-2" width="160" relative="1" as="geometry">
            <mxPoint x="196" y="683" as="sourcePoint" />
            <mxPoint x="101" y="520" as="targetPoint" />
            <Array as="points">
              <mxPoint x="101" y="748" />
            </Array>
            <mxPoint as="offset" />
          </mxGeometry>
        </mxCell>
        <mxCell id="f3pBe8pRWgfERB6MtVSj-37" value="" style="endArrow=block;endFill=1;html=1;rounded=0;edgeStyle=orthogonalEdgeStyle;entryX=0.096;entryY=1.021;entryDx=0;entryDy=0;entryPerimeter=0;exitX=0;exitY=0.5;exitDx=0;exitDy=0;" parent="1" source="f3pBe8pRWgfERB6MtVSj-28" edge="1" target="kFpFYELlEwabMlg4MgQJ-4">
          <mxGeometry x="-0.1048" width="160" relative="1" as="geometry">
            <mxPoint x="160" y="762" as="sourcePoint" />
            <mxPoint x="68" y="520" as="targetPoint" />
            <Array as="points">
              <mxPoint x="69" y="929" />
            </Array>
            <mxPoint as="offset" />
          </mxGeometry>
        </mxCell>
        <mxCell id="f3pBe8pRWgfERB6MtVSj-38" value="donkeys" style="swimlane;fontStyle=0;align=center;verticalAlign=top;childLayout=stackLayout;horizontal=1;startSize=37;horizontalStack=0;resizeParent=1;resizeParentMax=0;resizeLast=0;collapsible=1;marginBottom=0;fontSize=19;" parent="1" vertex="1">
          <mxGeometry x="442" y="851" width="224" height="156" as="geometry" />
        </mxCell>
        <mxCell id="kFpFYELlEwabMlg4MgQJ-12" value="id: INT&#xa;donkey_name VARCHAR(100)&#xa;birthday: date&#xa;commands: VARCHAR(255)&#xa;pack_animal_id: INT" style="text;strokeColor=none;fillColor=none;align=left;verticalAlign=top;spacingLeft=4;spacingRight=4;overflow=hidden;rotatable=0;points=[[0,0.5],[1,0.5]];portConstraint=eastwest;fontSize=16;fontStyle=0" vertex="1" parent="f3pBe8pRWgfERB6MtVSj-38">
          <mxGeometry y="37" width="224" height="119" as="geometry" />
        </mxCell>
        <mxCell id="f3pBe8pRWgfERB6MtVSj-40" value="camel" style="swimlane;fontStyle=0;align=center;verticalAlign=top;childLayout=stackLayout;horizontal=1;startSize=37;horizontalStack=0;resizeParent=1;resizeParentMax=0;resizeLast=0;collapsible=1;marginBottom=0;fontSize=19;" parent="1" vertex="1">
          <mxGeometry x="441" y="660" width="222" height="156" as="geometry" />
        </mxCell>
        <mxCell id="kFpFYELlEwabMlg4MgQJ-11" value="id: INT&#xa;camel_name VARCHAR(100)&#xa;birthday: date&#xa;commands: VARCHAR(255)&#xa;pack_animal_id: INT" style="text;strokeColor=none;fillColor=none;align=left;verticalAlign=top;spacingLeft=4;spacingRight=4;overflow=hidden;rotatable=0;points=[[0,0.5],[1,0.5]];portConstraint=eastwest;fontSize=16;fontStyle=0" vertex="1" parent="f3pBe8pRWgfERB6MtVSj-40">
          <mxGeometry y="37" width="222" height="119" as="geometry" />
        </mxCell>
        <mxCell id="f3pBe8pRWgfERB6MtVSj-42" value="horses" style="swimlane;fontStyle=0;align=center;verticalAlign=top;childLayout=stackLayout;horizontal=1;startSize=37;horizontalStack=0;resizeParent=1;resizeParentMax=0;resizeLast=0;collapsible=1;marginBottom=0;fontSize=19;" parent="1" vertex="1">
          <mxGeometry x="438" y="483.5" width="221" height="156" as="geometry" />
        </mxCell>
        <mxCell id="kFpFYELlEwabMlg4MgQJ-10" value="id: INT&#xa;horse_name VARCHAR(100)&#xa;birthday: date&#xa;commands: VARCHAR(255)&#xa;pack_animal_id: INT" style="text;strokeColor=none;fillColor=none;align=left;verticalAlign=top;spacingLeft=4;spacingRight=4;overflow=hidden;rotatable=0;points=[[0,0.5],[1,0.5]];portConstraint=eastwest;fontSize=16;fontStyle=0" vertex="1" parent="f3pBe8pRWgfERB6MtVSj-42">
          <mxGeometry y="37" width="221" height="119" as="geometry" />
        </mxCell>
        <mxCell id="f3pBe8pRWgfERB6MtVSj-43" value="" style="endArrow=block;endFill=1;html=1;rounded=0;edgeStyle=orthogonalEdgeStyle;entryX=0.697;entryY=1.031;entryDx=0;entryDy=0;entryPerimeter=0;exitX=1;exitY=0.5;exitDx=0;exitDy=0;" parent="1" source="f3pBe8pRWgfERB6MtVSj-42" edge="1" target="kFpFYELlEwabMlg4MgQJ-5">
          <mxGeometry x="0.2862" y="-2" width="160" relative="1" as="geometry">
            <mxPoint x="708" y="610" as="sourcePoint" />
            <mxPoint x="662" y="522" as="targetPoint" />
            <Array as="points">
              <mxPoint x="689" y="543" />
            </Array>
            <mxPoint y="1" as="offset" />
          </mxGeometry>
        </mxCell>
        <mxCell id="f3pBe8pRWgfERB6MtVSj-45" value="" style="endArrow=block;endFill=1;html=1;rounded=0;edgeStyle=orthogonalEdgeStyle;exitX=1;exitY=0.5;exitDx=0;exitDy=0;entryX=0.819;entryY=1.003;entryDx=0;entryDy=0;entryPerimeter=0;" parent="1" source="f3pBe8pRWgfERB6MtVSj-40" edge="1" target="kFpFYELlEwabMlg4MgQJ-5">
          <mxGeometry x="0.1395" y="-2" width="160" relative="1" as="geometry">
            <mxPoint x="809" y="683" as="sourcePoint" />
            <mxPoint x="724" y="425" as="targetPoint" />
            <Array as="points">
              <mxPoint x="663" y="683" />
              <mxPoint x="725" y="683" />
            </Array>
            <mxPoint as="offset" />
          </mxGeometry>
        </mxCell>
        <mxCell id="f3pBe8pRWgfERB6MtVSj-46" value="" style="endArrow=block;endFill=1;html=1;rounded=0;edgeStyle=orthogonalEdgeStyle;exitX=1;exitY=0.5;exitDx=0;exitDy=0;entryX=0.931;entryY=1.025;entryDx=0;entryDy=0;entryPerimeter=0;" parent="1" source="f3pBe8pRWgfERB6MtVSj-38" edge="1" target="kFpFYELlEwabMlg4MgQJ-5">
          <mxGeometry x="-0.031" y="2" width="160" relative="1" as="geometry">
            <mxPoint x="881" y="760" as="sourcePoint" />
            <mxPoint x="793" y="452" as="targetPoint" />
            <Array as="points">
              <mxPoint x="757" y="929" />
            </Array>
            <mxPoint y="1" as="offset" />
          </mxGeometry>
        </mxCell>
        <mxCell id="f3pBe8pRWgfERB6MtVSj-35" value="" style="endArrow=block;endFill=1;html=1;rounded=0;edgeStyle=orthogonalEdgeStyle;exitX=0;exitY=0.5;exitDx=0;exitDy=0;entryX=0.32;entryY=1.027;entryDx=0;entryDy=0;entryPerimeter=0;" parent="1" source="f3pBe8pRWgfERB6MtVSj-32" edge="1" target="kFpFYELlEwabMlg4MgQJ-4">
          <mxGeometry x="0.2862" y="-2" width="160" relative="1" as="geometry">
            <mxPoint x="303" y="784" as="sourcePoint" />
            <mxPoint x="134" y="522" as="targetPoint" />
            <Array as="points">
              <mxPoint x="134" y="562" />
            </Array>
            <mxPoint y="1" as="offset" />
          </mxGeometry>
        </mxCell>
      </root>
    </mxGraphModel>
  </diagram>
</mxfile>
